<?xml version="1.0" encoding="utf-8"?>
<!-- Generator: Adobe Illustrator 21.0.0, SVG Export Plug-In . SVG Version: 6.00 Build 0)  -->
<svg version="1.1" id="Layer_1" xmlns="http://www.w3.org/2000/svg" xmlns:xlink="http://www.w3.org/1999/xlink" x="0px" y="0px"
	 viewBox="0 0 182.9 187.8" style="enable-background:new 0 0 182.9 187.8;" xml:space="preserve">
<style type="text/css">
	.st0{fill:#43A047;}
</style>
<title>Poultry</title>
<g id="Layer_2">
	<g id="Layer_1-2">
		<circle class="st0" cx="121.7" cy="25.2" r="1.7"/>
		<path class="st0" d="M91.5,187.8C41,188.4-0.4,147.8-1,97.3S39,5.4,89.6,4.9c0.6,0,1.3,0,1.9,0c0.8,0,1.4,0.6,1.4,1.4
			s-0.6,1.4-1.4,1.4c-49,0-88.7,39.7-88.6,88.7c0,49,39.7,88.7,88.7,88.6s88.7-39.7,88.6-88.7c0-28.4-13.6-55.1-36.6-71.7
			c-0.6-0.5-0.8-1.3-0.3-1.9c0.5-0.6,1.3-0.8,1.9-0.3c40.9,29.7,50,86.9,20.3,127.8C148.3,173.8,120.8,187.8,91.5,187.8z"/>
		<path class="st0" d="M6.2,96.4c0,47.1,38.3,85.3,85.4,85.3c6,0,12.1-0.7,18-1.9c28.3-28,11.1-73.7,6.2-102.7
			c-5.8-34.3,6.5-42.1,6.5-42.1s-7.6,19.3,2.3,18.7s7.4-19.2,7.4-19.2c4.3-0.5,8.6,0.4,12.3,2.6c-1.7-8.6-10.8-12.6-10.8-12.6
			c1.9-11-4.8-13.7-4.8-13.7c-0.2-2.9-2.5-5.1-5.4-5.2c0.3-8.7-6.8,0.4-6.8,0.4s1.2-5.7-3.8-6s-3.3,6.7-3.3,6.7s-3-5.2-6.9-2.1
			s5.5,11,5.5,11c-28.8,7-36.7,41.8-36.7,41.8s-7.5,28.5-37,30.8c-9.3,0.8-18.6-0.3-27.4-3C6.4,88.9,6.2,92.6,6.2,96.4z M121.7,22.1
			c1.7,0,3.1,1.4,3.1,3.1s-1.4,3.1-3.1,3.1c-1.7,0-3.1-1.4-3.1-3.1c0,0,0,0,0,0C118.6,23.5,120,22.1,121.7,22.1z"/>
	</g>
</g>
</svg>
